<svg width="56" height="56" viewBox="0 0 56 56" fill="none" xmlns="http://www.w3.org/2000/svg">
<g clip-path="url(#clip0_2319_651)">
<path d="M42.0202 17.3388L25.9038 13.8058C25.4753 13.7197 25.0302 13.8053 24.6643 14.0441C24.2983 14.283 24.0408 14.6561 23.9472 15.0829C23.8537 15.5098 23.9315 15.9564 24.164 16.3264C24.3964 16.6965 24.7649 16.9604 25.1901 17.0614L37.3765 19.7328L12.694 35.5395C12.3218 35.7779 12.0595 36.1544 11.9648 36.5861C11.8702 37.0179 11.9509 37.4696 12.1893 37.8418C12.4277 38.2141 12.8042 38.4764 13.236 38.571C13.6677 38.6657 14.1194 38.5849 14.4917 38.3465L39.1741 22.5398L36.5027 34.7262C36.4516 34.9415 36.4438 35.1649 36.4799 35.3832C36.516 35.6015 36.5953 35.8105 36.713 35.9979C36.8307 36.1853 36.9846 36.3474 37.1656 36.4747C37.3467 36.602 37.5512 36.6919 37.7674 36.7393C37.9836 36.7867 38.207 36.7906 38.4247 36.7507C38.6424 36.7108 38.8499 36.6279 39.0353 36.507C39.2206 36.386 39.38 36.2293 39.5041 36.0461C39.6282 35.8629 39.7146 35.6568 39.7582 35.4398L43.2912 19.3234C43.3857 18.8917 43.305 18.4401 43.0666 18.0679C42.8283 17.6957 42.4519 17.4335 42.0202 17.3388Z" fill="white"/>
</g>
<defs>
<clipPath id="clip0_2319_651">
<rect width="40" height="40" fill="white" transform="translate(0 21.8983) rotate(-32.6356)"/>
</clipPath>
</defs>
</svg>
