<svg width="32" height="32" viewBox="0 0 32 32" fill="none" xmlns="http://www.w3.org/2000/svg">
<path d="M29.3795 14.8814L20.533 6.22897C20.2947 6.0039 19.9776 5.88141 19.6499 5.8879C19.3222 5.89438 19.0102 6.02931 18.781 6.26363C18.5518 6.49795 18.4238 6.8129 18.4246 7.14066C18.4254 7.46842 18.5549 7.78275 18.7852 8.01596L25.4744 14.5584L3.4933 14.8023C3.1618 14.8059 2.84534 14.9412 2.61353 15.1782C2.38173 15.4152 2.25357 15.7346 2.25725 16.0661C2.26092 16.3976 2.39614 16.714 2.63314 16.9458C2.87015 17.1776 3.18954 17.3058 3.52104 17.3021L25.5022 17.0583L18.9597 23.7475C18.8416 23.8641 18.7479 24.0031 18.6841 24.1563C18.6203 24.3095 18.5876 24.4739 18.588 24.6399C18.5884 24.8059 18.6219 24.9701 18.6865 25.123C18.751 25.276 18.8454 25.4145 18.964 25.5305C19.0827 25.6466 19.2233 25.7379 19.3776 25.799C19.5319 25.8602 19.6968 25.89 19.8628 25.8867C20.0287 25.8834 20.1924 25.8471 20.3441 25.7799C20.4959 25.7127 20.6328 25.6159 20.7467 25.4953L29.3991 16.6487C29.6309 16.4118 29.759 16.0924 29.7553 15.761C29.7516 15.4296 29.6164 15.1132 29.3795 14.8814Z" fill="white"/>
</svg>
